<?xml version="1.0" standalone="no"?>
<!DOCTYPE svg PUBLIC "-//W3C//DTD SVG 20010904//EN"
 "http://www.w3.org/TR/2001/REC-SVG-20010904/DTD/svg10.dtd">
<svg version="1.0" xmlns="http://www.w3.org/2000/svg"
 width="520.000000pt" height="228.000000pt" viewBox="0 0 520.000000 228.000000"
 preserveAspectRatio="xMidYMid meet">

<g transform="translate(0.000000,228.000000) scale(0.100000,-0.100000)"
fill="#000000" stroke="none">
<path d="M911 1449 c-116 -20 -211 -92 -263 -197 -30 -61 -33 -74 -33 -162 0
-81 4 -103 24 -145 89 -181 326 -248 577 -165 l63 21 3 102 3 102 35 11 c19 6
36 16 38 23 3 8 -45 11 -168 11 -133 0 -171 -3 -168 -12 3 -7 15 -15 29 -16
49 -7 59 -28 59 -124 0 -104 1 -103 -106 -103 -59 0 -77 4 -107 25 -66 45 -98
132 -99 271 0 101 17 177 53 233 89 141 309 99 385 -73 29 -67 39 -46 39 84 0
121 -10 151 -33 100 -14 -30 -31 -31 -99 -5 -63 24 -160 32 -232 19z"/>
<path d="M4168 1450 c-65 -11 -163 -66 -205 -114 -20 -23 -47 -66 -62 -96 -22
-47 -26 -68 -26 -150 0 -77 4 -104 22 -143 61 -133 170 -198 332 -198 100 -1
173 22 234 72 30 25 37 37 37 67 l0 36 -42 -41 c-103 -100 -250 -112 -330 -27
-37 39 -54 85 -67 175 -14 103 2 208 42 276 22 38 100 92 136 94 118 7 192
-38 236 -144 26 -64 35 -44 35 83 0 120 -7 142 -28 95 -14 -30 -29 -31 -102
-6 -70 23 -152 31 -212 21z"/>
<path d="M1392 1348 c2 -50 8 -93 13 -95 6 -1 19 20 30 49 26 66 55 88 125 91
l55 2 0 -286 c0 -314 0 -312 -60 -323 -19 -4 -35 -11 -35 -16 0 -6 72 -10 180
-10 175 0 220 9 143 27 -62 14 -63 24 -60 333 l2 275 53 -2 c70 -3 106 -29
129 -94 10 -27 22 -48 28 -46 5 2 11 45 13 95 l3 92 -311 0 -311 0 3 -92z"/>
<path d="M2050 1432 c0 -6 15 -14 33 -17 59 -13 57 -4 57 -309 0 -154 -4 -287
-9 -294 -5 -8 -23 -17 -41 -21 -19 -3 -35 -12 -38 -20 -3 -10 39 -12 224 -8
261 4 287 10 351 73 98 98 49 238 -98 277 -22 6 -19 9 26 31 75 34 102 86 85
160 -9 42 -48 88 -95 114 -25 14 -69 18 -262 20 -151 2 -233 0 -233 -6z m362
-53 c55 -29 76 -120 41 -180 -20 -34 -68 -59 -112 -59 l-31 0 0 131 0 131 43
-7 c23 -4 50 -11 59 -16z m8 -307 c66 -33 92 -130 56 -201 -25 -47 -107 -82
-146 -61 -18 10 -20 21 -20 145 l0 135 38 0 c20 0 53 -8 72 -18z"/>
<path d="M2730 1431 c0 -5 14 -11 32 -15 60 -12 58 -4 58 -308 0 -162 -4 -287
-10 -297 -5 -10 -25 -22 -45 -25 -19 -4 -35 -11 -35 -16 0 -6 72 -10 180 -10
170 0 224 9 148 25 -70 15 -68 8 -68 314 0 152 4 281 8 287 11 16 48 34 71 34
12 0 21 5 21 10 0 6 -67 10 -180 10 -99 0 -180 -4 -180 -9z"/>
<path d="M3120 1431 c0 -5 14 -12 30 -16 61 -13 60 -10 60 -314 0 -252 -2
-279 -17 -294 -10 -8 -29 -17 -42 -19 -14 -1 -26 -9 -29 -15 -3 -10 36 -13
173 -13 137 0 176 3 173 13 -3 6 -18 13 -36 15 -51 5 -57 22 -57 156 0 167 7
165 147 -31 l109 -153 109 0 c112 0 133 8 83 32 -29 14 -65 58 -163 199 l-59
87 46 23 c25 13 55 36 66 51 25 34 34 126 17 168 -20 49 -81 96 -139 109 -63
13 -471 15 -471 2z m373 -45 c52 -22 70 -50 75 -115 5 -66 -14 -117 -50 -140
-12 -7 -50 -16 -85 -19 l-63 -5 0 147 0 146 45 0 c25 0 60 -6 78 -14z"/>
</g>
</svg>
